<svg width="700" height="700" viewBox="0 0 700 700" fill="none" xmlns="http://www.w3.org/2000/svg">
<rect width="700" height="700" rx="16" fill="#D9D9D9"/>
<path d="M339.885 445.682L343.67 455.168C343.67 455.168 345.247 459.12 350.609 459.911C355.814 460.859 365.907 460.701 374.739 459.753C383.571 458.804 395.714 455.958 395.714 455.958C395.714 455.958 399.342 455.01 400.761 451.848C402.023 449.002 402.181 438.251 402.181 438.251" fill="#B2B2B2"/>
<path d="M440.028 278.888C433.72 266.714 419.526 254.54 406.751 249.797C404.701 249.165 402.178 248.691 399.812 249.007C398.55 249.165 397.604 249.323 396.658 249.323C385.303 242.05 366.851 237.465 356.126 246.161C351.395 244.106 346.191 243.315 340.986 243.157C331.208 242.841 321.903 245.687 313.545 250.588C307.71 249.639 301.559 249.323 295.724 250.746C285.157 253.117 274.591 258.335 267.967 267.346C264.655 271.299 262.92 276.042 263.078 279.994C262.762 281.891 262.762 283.947 263.235 285.844C254.561 291.377 253.142 303.867 256.454 312.879C257.873 315.725 259.924 317.78 262.289 319.361C258.82 328.215 264.97 334.697 271.594 340.072C277.745 345.131 284.526 349.558 291.465 353.036C303.294 359.36 307.394 365.842 311.81 378.016C313.545 384.498 314.806 391.138 316.068 397.779C317.961 407.265 318.907 417.383 322.219 426.553C324.111 434.142 329.631 440.466 338.148 441.414C348.241 442.837 358.019 442.047 367.797 441.256C377.575 440.149 387.353 439.359 396.973 436.671C401.705 435.09 407.382 433.984 410.852 430.189C413.06 426.711 413.848 422.6 413.217 418.648C415.425 405.526 414.794 391.929 415.898 378.807C416.845 370.111 417.791 360.309 418.737 351.614C423.942 348.293 428.357 344.025 431.827 338.807C433.72 335.962 434.981 332.642 435.928 329.638C437.189 325.369 438.451 321.1 439.239 316.673C439.397 316.515 439.397 316.515 439.555 316.357C447.598 305.29 445.706 290.429 440.028 278.888Z" fill="white"/>
<path d="M371.898 295.488C373.16 294.856 375.368 293.433 377.733 292.801C380.099 292.168 389.404 291.22 395.712 293.433C396.658 290.271 397.447 287.267 399.813 283.157C402.494 278.572 405.49 271.774 405.49 266.714C405.332 262.129 401.547 256.596 393.977 252.169C393.189 251.853 384.042 247.426 379.31 246.319C378.995 246.319 373.948 245.371 373.002 245.371C367.797 245.055 364.17 246.003 361.804 247.268C361.804 247.268 361.805 247.268 361.962 247.268C365.274 249.64 373.16 256.28 374.421 264.975C375.052 269.56 373.948 273.829 370.952 277.939C367.167 283.157 360.227 286.793 353.604 290.429C346.507 294.224 341.618 295.33 338.306 302.919C334.994 310.508 344.772 322.365 352.342 324.105C345.876 324.263 338.463 321.575 334.678 315.725C333.417 313.986 331.997 310.034 331.682 307.82C331.367 305.607 331.367 302.761 331.997 300.864C334.363 292.643 341.775 289.797 350.607 285.054C356.6 281.734 362.751 278.414 365.905 274.303C367.797 271.615 368.586 269.086 368.113 266.082C367.482 261.655 363.697 256.596 358.177 252.485C351.711 247.9 334.836 245.213 320.169 252.169L317.803 253.276C301.244 261.971 295.566 270.983 293.674 277.149C299.825 271.615 308.341 267.979 320.169 267.031C331.84 266.24 334.678 268.928 340.356 270.509C331.84 269.718 323.639 270.193 313.23 274.936C302.821 279.679 291.466 289.639 290.52 296.595C287.05 320.468 294.305 324.579 305.66 334.223C317.015 343.867 326.793 346.08 334.048 346.239C326.635 348.136 314.807 346.397 303.137 339.44C291.466 332.326 280.426 323.63 284.369 295.805C284.842 292.327 285.788 289.165 287.208 286.319C286.262 281.734 285.473 267.031 306.922 252.643C305.502 252.643 304.083 252.802 302.663 252.96C296.986 255.805 291.939 259.916 288.154 264.975C284.684 269.086 283.107 273.829 283.265 277.939C282.95 279.837 282.95 281.892 283.423 283.947C274.591 289.639 273.014 302.287 276.484 311.615C277.903 314.46 279.953 316.674 282.477 318.255C279.007 327.425 285.158 334.065 292.097 339.44C298.405 344.658 305.344 349.084 312.441 352.879C324.585 359.361 328.685 366.001 333.259 378.491C334.521 383.55 335.625 388.609 336.571 393.669C342.879 394.933 350.607 396.04 360.07 397.305C380.572 399.834 402.336 402.206 413.691 400.941L414.322 381.969V381.811C415.268 370.902 416.214 362.997 416.845 358.096C415.899 358.412 414.953 358.728 414.006 359.045C413.691 359.203 413.376 359.203 412.902 359.361C412.745 359.361 412.745 359.361 412.745 359.361C412.429 359.361 412.272 359.361 412.114 359.361C405.017 359.519 398.078 359.519 391.139 358.57C397.92 357.622 404.702 355.566 411.325 353.511C411.483 353.353 411.798 353.353 411.956 353.353C418.422 352.246 427.727 344.183 432.301 332.642C433.089 330.587 433.878 328.689 434.509 326.95C430.251 330.429 425.677 333.116 422.207 334.697C419.526 335.804 416.372 337.227 412.745 337.543C409.117 337.859 405.017 337.385 400.286 334.539C398.235 333.274 396.658 332.168 395.081 331.219C391.139 328.531 389.561 326.95 383.726 327.267C377.891 327.583 374.579 330.903 372.371 336.12C372.686 332.958 373.16 329.796 375.21 326.634C377.102 323.788 378.995 322.049 383.726 321.417C388.457 320.784 394.293 323.156 398.393 326.002C399.813 326.95 401.39 328.057 403.282 329.164C409.275 332.8 413.691 331.377 419.369 328.848C425.204 326.318 433.562 320.468 438.136 313.986C438.767 313.196 439.24 312.089 439.713 311.14C439.713 310.982 439.871 310.824 439.871 310.824C443.34 303.235 442.552 292.327 437.347 282.05C431.828 270.983 416.214 258.335 408.329 255.173C407.383 254.857 406.594 254.541 405.805 254.383C409.591 258.335 411.641 262.92 411.798 267.505C411.956 274.145 408.171 281.576 405.49 286.951C404.386 289.165 402.178 294.698 401.547 296.753C403.598 297.702 408.013 298.967 410.537 301.812C413.06 304.658 417.003 313.038 416.372 319.203C414.953 313.67 409.433 308.453 406.752 306.555C404.071 304.658 400.286 303.077 396.343 301.496L394.924 301.022C389.246 298.809 380.887 299.757 377.418 300.231C371.109 301.18 365.116 303.552 360.701 308.453C363.224 302.603 367.167 298.492 371.898 295.488Z" fill="#EFEFEF"/>
<path d="M412.745 419.755L413.218 406.79C402.336 407.897 384.672 406.316 359.123 403.154C350.765 402.047 343.668 401.099 337.675 399.992C338.936 406.79 339.883 413.905 341.46 420.703C347.611 421.968 355.023 423.075 363.855 423.865C390.823 426.237 404.859 426.237 412.114 425.288C412.271 423.391 412.587 421.494 412.745 419.755Z" fill="#EFEFEF"/>
<path d="M363.225 430.03C355.97 429.398 349.346 428.449 343.511 427.343C343.511 427.501 343.511 427.501 343.669 427.659C345.246 434.141 349.504 439.675 355.813 441.888C363.383 441.572 371.741 440.623 379.942 439.833C394.609 438.252 405.176 437.145 409.434 433.509C409.749 433.192 410.065 432.56 410.538 431.77C401.548 432.56 387.197 432.244 363.225 430.03Z" fill="#EFEFEF"/>
<path d="M443.024 278.255C437.031 266.397 420.472 252.168 410.694 248.374C405.963 246.476 403.281 246.793 401.074 246.951C399.654 247.109 398.708 247.109 397.289 246.635C396.5 246.16 395.554 245.686 394.607 245.212C390.349 242.524 384.672 240.943 380.256 240.152C377.733 239.52 375.367 239.204 373.317 239.046C363.854 238.571 358.019 241.892 355.495 244.105C345.717 240.785 330.42 240.152 316.857 246.951C316.699 246.951 316.541 246.951 316.541 246.951C315.437 246.793 313.545 246.635 310.075 246.476C299.982 245.686 287.838 248.848 277.587 254.856C271.121 258.65 262.447 266.713 260.081 275.409C259.135 277.78 258.977 280.626 259.608 283.788C259.766 284.42 259.923 285.053 260.081 285.685C257.085 288.373 252.984 296.12 252.353 300.863C251.723 305.606 251.092 315.882 258.504 321.416C257.715 324.736 257.4 330.427 261.974 335.645C267.336 341.653 278.533 349.874 289.257 355.565C298.72 360.625 302.978 365.526 305.502 369.952C303.451 371.692 300.139 375.802 302.505 384.023C303.451 387.185 305.817 390.347 313.387 393.667C313.387 393.826 313.387 393.984 313.387 393.984V394.142H313.229C313.702 396.513 314.333 399.201 314.806 401.73C311.968 402.837 308.498 405.367 308.971 410.11C309.287 413.588 312.441 416.908 317.803 419.754C319.065 426.236 320.799 433.983 322.219 436.512C323.638 439.042 327.896 446.473 337.043 448.054C347.925 449.951 364.643 448.212 380.729 446.473C396.815 444.734 407.855 443.627 413.69 438.568C415.425 436.987 416.687 434.141 417.475 431.137C420.945 430.347 422.837 429.24 424.099 428.133C425.834 426.552 426.307 424.813 426.307 423.706C426.465 418.489 422.207 415.169 419.526 413.904C419.368 413.904 419.368 413.904 419.21 413.746L419.526 405.841C421.576 405.209 423.153 404.418 424.257 403.47C425.992 401.889 427.096 399.991 427.096 397.62C427.411 391.138 422.995 387.343 420.156 386.079L420.314 381.968C421.734 366 423.153 356.198 423.468 353.668C428.988 349.399 434.35 342.917 437.82 334.38C441.92 324.103 444.601 316.04 445.39 313.511C449.964 303.867 449.333 290.586 443.024 278.255ZM308.183 381.968C307.394 379.28 307.552 377.541 308.025 376.435C308.971 379.122 309.917 382.126 310.706 384.972C309.129 383.865 308.498 382.917 308.183 381.968ZM412.113 425.287C404.859 426.078 390.822 426.236 363.854 423.864C343.352 421.967 330.577 418.489 323.323 415.327C323.007 413.114 322.534 411.058 322.219 409.319C321.588 404.734 320.799 400.308 320.011 396.039C328.369 398.568 340.828 401.098 359.123 403.311C384.672 406.473 402.335 408.054 413.217 406.948L412.744 419.912C412.586 421.493 412.429 423.39 412.113 425.287ZM314.964 409.319C314.964 408.845 315.122 408.371 315.437 408.054C315.595 408.687 315.595 409.477 315.753 410.11C315.753 410.268 315.91 410.584 315.91 410.9C315.437 410.268 315.122 409.794 314.964 409.319ZM409.432 433.509C405.174 437.303 394.607 438.41 379.94 439.833C364.327 441.414 348.083 443.153 337.99 441.414C333.732 440.623 330.577 438.093 327.581 433.034C326.792 431.769 325.846 427.501 324.742 422.6C334.047 425.92 347.295 428.607 363.381 430.03C387.353 432.244 401.704 432.402 410.536 431.769C410.063 432.56 409.748 433.192 409.432 433.509ZM418.579 423.864C418.737 422.758 418.737 421.651 418.895 420.861C419.368 421.493 419.841 422.125 419.841 422.916C419.841 423.232 419.368 423.548 418.579 423.864ZM420.787 397.146C420.787 397.62 420.63 397.936 420.156 398.41C419.999 398.568 419.841 398.727 419.683 398.727L419.841 393.667C420.472 394.458 420.945 395.565 420.787 397.146ZM411.64 352.561C411.325 352.561 411.167 352.72 411.009 352.72C404.385 354.775 397.762 356.83 390.822 357.779C397.762 358.727 404.701 358.727 411.798 358.569C412.113 358.569 412.271 358.569 412.429 358.569C412.586 358.569 412.586 358.569 412.586 358.569C412.902 358.569 413.375 358.411 413.69 358.253C414.637 358.095 415.583 357.779 416.529 357.304C415.898 362.206 414.952 370.269 414.006 381.019V381.178L413.375 400.149C402.02 401.414 380.256 399.043 359.754 396.513C338.463 393.826 325.846 390.98 318.434 388.292C317.014 383.233 314.649 375.17 312.756 370.427C310.39 364.419 305.975 356.672 292.096 349.241C282.003 343.866 271.436 336.277 266.547 330.744C264.497 328.53 264.182 326.001 264.182 324.103C264.497 324.42 271.594 327.582 281.214 324.262C276.798 323.155 269.071 321.574 264.024 318.254C258.977 314.934 258.504 312.088 258.189 308.768C256.769 294.381 264.812 289.321 265.128 289.005L265.443 288.847C268.755 290.428 273.013 290.428 276.641 289.163C272.698 288.689 268.282 287.582 266.389 284.104C265.916 283.314 265.916 282.681 265.916 281.891C265.916 281.575 265.916 281.417 265.916 281.1C264.339 273.986 273.644 264.184 280.899 259.757C289.257 254.856 298.72 252.168 307.079 252.168C285.63 266.555 286.419 281.258 287.365 285.843C285.946 288.689 284.999 291.851 284.526 295.329C280.583 323.155 291.623 331.85 303.294 338.965C314.964 346.079 326.635 347.66 334.205 345.763C326.95 345.605 317.014 343.392 305.817 333.748C294.62 324.103 287.365 319.993 290.677 296.12C291.623 289.163 302.978 279.045 313.387 274.46C323.796 269.717 331.997 269.401 340.513 270.033C334.835 268.452 331.997 265.765 320.326 266.555C308.656 267.346 299.982 271.14 293.831 276.674C295.723 270.508 301.401 261.496 317.961 252.8L320.326 251.694C334.993 244.895 352.026 247.425 358.334 252.01C364.012 256.121 367.639 261.18 368.27 265.607C368.743 268.452 367.955 271.14 366.062 273.828C363.066 277.938 356.757 281.258 350.764 284.579C342.09 289.321 334.52 292.167 332.154 300.388C331.524 302.444 331.524 305.29 331.839 307.345C332.154 309.4 333.574 313.511 334.835 315.25C338.621 321.1 346.033 323.787 352.499 323.629C344.929 322.048 335.151 310.033 338.463 302.444C341.775 294.855 346.664 293.906 353.761 289.954C360.384 286.318 367.166 282.681 371.109 277.464C374.105 273.512 375.209 269.085 374.578 264.5C373.317 255.646 365.431 249.164 362.119 246.793C362.119 246.793 362.119 246.793 361.962 246.793C364.327 245.686 367.955 244.579 373.159 244.895C374.105 245.054 379.152 245.844 379.467 245.844C384.199 246.951 393.346 251.219 394.134 251.694C401.547 256.121 405.489 261.654 405.647 266.239C405.805 271.298 402.651 278.096 399.97 282.681C397.604 286.792 396.815 289.954 395.869 292.958C389.561 290.744 380.256 291.693 377.89 292.325C375.525 292.958 373.317 294.381 372.055 295.013C367.324 297.859 363.223 301.969 360.858 307.029C365.273 302.128 371.266 299.756 377.575 298.807C381.044 298.333 389.403 297.226 395.081 299.598L396.5 300.072C400.443 301.653 404.228 303.234 406.909 305.131C409.59 307.029 415.11 312.404 416.529 317.779C417.16 311.614 413.217 303.234 410.694 300.388C408.171 297.543 403.912 296.278 401.704 295.329C402.335 293.274 404.385 287.741 405.647 285.527C408.328 280.152 412.113 272.879 411.956 266.081C411.798 261.496 409.748 256.911 405.963 252.959C406.593 253.117 407.54 253.433 408.486 253.749C416.214 256.753 431.827 269.401 437.505 280.626C442.709 290.903 443.497 301.811 440.028 309.4C440.028 309.558 439.87 309.558 439.87 309.716C439.397 310.665 438.766 311.614 438.293 312.562C433.562 319.044 425.361 324.894 419.526 327.424C413.69 329.953 409.432 331.376 403.439 327.74C401.547 326.633 399.97 325.526 398.55 324.578C394.45 321.732 388.615 319.36 383.883 319.993C379.152 320.625 377.259 322.522 375.367 325.21C373.317 328.214 372.844 331.534 372.528 334.696C374.578 329.637 378.048 326.317 383.883 325.843C389.718 325.368 391.296 327.107 395.238 329.795C396.658 330.744 398.393 331.85 400.443 333.115C405.016 335.803 409.274 336.435 412.902 336.119C416.529 335.803 419.683 334.38 422.364 333.273C425.992 331.692 430.408 329.005 434.666 325.526C434.035 327.265 433.246 329.163 432.458 331.218C427.411 343.392 417.949 351.297 411.64 352.561Z" fill="#B2B2B2"/>
</svg>
